<svg width="32" height="32" viewBox="0 0 32 32" fill="none" xmlns="http://www.w3.org/2000/svg">
<mask id="mask0_107_16" style="mask-type:luminance" maskUnits="userSpaceOnUse" x="0" y="0" width="32" height="32">
<path d="M32 0H0V32H32V0Z" fill="white"/>
</mask>
<g mask="url(#mask0_107_16)">
<path d="M11 26.885H12.656C12.8977 26.8604 13.12 26.7418 13.2749 26.5547C13.4298 26.3675 13.5049 26.127 13.484 25.885V12.885C13.5049 12.643 13.4298 12.4024 13.2749 12.2153C13.12 12.0282 12.8977 11.9096 12.656 11.885H11C10.7583 11.9096 10.536 12.0282 10.3811 12.2153C10.2261 12.4024 10.1511 12.643 10.172 12.885V25.885C10.1511 26.127 10.2261 26.3675 10.3811 26.5547C10.536 26.7418 10.7583 26.8604 11 26.885ZM11.172 12.885H12.484V25.885H11.172V12.885Z" fill="#FF0000"/>
<path d="M15.172 26.885H16.828C17.0697 26.8604 17.292 26.7418 17.4469 26.5547C17.6018 26.3675 17.6769 26.127 17.656 25.885V12.885C17.6769 12.643 17.6018 12.4024 17.4469 12.2153C17.292 12.0282 17.0697 11.9096 16.828 11.885H15.172C14.9303 11.9096 14.708 12.0282 14.5531 12.2153C14.3982 12.4024 14.323 12.643 14.344 12.885V25.885C14.323 26.127 14.3982 26.3675 14.5531 26.5547C14.708 26.7418 14.9303 26.8604 15.172 26.885ZM15.344 12.885H16.656V25.885H15.344V12.885Z" fill="#FF0000"/>
<path d="M19.344 26.885H21C21.2417 26.8604 21.464 26.7418 21.6189 26.5547C21.7738 26.3675 21.8489 26.127 21.828 25.885V12.885C21.8489 12.643 21.7738 12.4024 21.6189 12.2153C21.464 12.0282 21.2417 11.9096 21 11.885H19.344C19.1023 11.9096 18.88 12.0282 18.7251 12.2153C18.5702 12.4024 18.495 12.643 18.516 12.885V25.885C18.495 26.127 18.5702 26.3675 18.7251 26.5547C18.88 26.7418 19.1023 26.8604 19.344 26.885ZM19.516 12.885H20.828V25.885H19.516V12.885Z" fill="#FF0000"/>
<path d="M25.395 3.85501H21.916V3.05499C21.9155 2.6812 21.7668 2.32287 21.5024 2.05856C21.2381 1.79425 20.8798 1.64552 20.506 1.64499H11.494C11.1202 1.64552 10.7619 1.79425 10.4976 2.05856C10.2332 2.32287 10.0845 2.6812 10.084 3.05499V3.85501H6.60001C5.84332 3.85581 5.11785 4.15675 4.58279 4.6918C4.04774 5.22686 3.7468 5.95233 3.746 6.70901V8.41599C3.746 8.94642 3.95671 9.45513 4.33179 9.8302C4.70686 10.2053 5.21557 10.416 5.746 10.416V26.354C5.746 27.4149 6.16743 28.4323 6.91757 29.1824C7.66772 29.9326 8.68514 30.354 9.746 30.354H22.246C23.3069 30.354 24.3243 29.9326 25.0744 29.1824C25.8246 28.4323 26.246 27.4149 26.246 26.354V10.416C26.7764 10.416 27.2851 10.2053 27.6602 9.8302C28.0353 9.45513 28.246 8.94642 28.246 8.41599V6.70901C28.2452 5.95285 27.9447 5.22781 27.4103 4.69284C26.8759 4.15787 26.1512 3.8566 25.395 3.85501ZM11.084 3.05499C11.084 3.00115 11.0946 2.94785 11.1152 2.8981C11.1358 2.84836 11.166 2.80315 11.2041 2.76508C11.2421 2.727 11.2874 2.69681 11.3371 2.67621C11.3868 2.6556 11.4401 2.64499 11.494 2.64499H20.506C20.5599 2.64499 20.6132 2.6556 20.6629 2.67621C20.7126 2.69681 20.7579 2.727 20.7959 2.76508C20.834 2.80315 20.8642 2.84836 20.8848 2.8981C20.9054 2.94785 20.916 3.00115 20.916 3.05499V3.85501H11.084V3.05499ZM24.25 26.355C24.2484 26.885 24.0372 27.3927 23.6625 27.7675C23.2877 28.1422 22.7799 28.3534 22.25 28.355H9.75C9.22005 28.3534 8.71225 28.1422 8.33752 27.7675C7.96279 27.3927 7.75158 26.885 7.75 26.355V10.416H24.25V26.355ZM26.25 7.564V8.41699H5.75V6.70999C5.74987 6.59781 5.77186 6.4867 5.81473 6.38303C5.8576 6.27935 5.92052 6.18516 5.99985 6.10583C6.07917 6.02651 6.17337 5.96362 6.27704 5.92075C6.38071 5.87787 6.49182 5.85586 6.604 5.85599H25.395C25.5073 5.85572 25.6185 5.87763 25.7223 5.92044C25.826 5.96325 25.9204 6.02613 25.9998 6.10547C26.0793 6.18481 26.1422 6.27908 26.1852 6.38281C26.2281 6.48655 26.2501 6.59772 26.25 6.70999V7.564Z" fill="#FF0000"/>
</g>
</svg>
