<svg width="25" height="24" viewBox="0 0 25 24" fill="none" xmlns="http://www.w3.org/2000/svg">
<rect width="25" height="24" fill="#1E1E1E"/>
<g id="body">
<rect width="1440" height="2764" transform="translate(-100 -2686)" fill="#001049"/>
<g id="Content" clip-path="url(#clip0_14_6039)">
<g id="Footer" clip-path="url(#clip1_14_6039)">
<g id="div">
<g id="container" clip-path="url(#clip2_14_6039)">
<g id="row" clip-path="url(#clip3_14_6039)">
<g id="col-md-3">
<g id="social media" clip-path="url(#clip4_14_6039)">
<g id="facebook" clip-path="url(#clip5_14_6039)">
<g id="ant-design:facebook-filled">
<path id="Vector" fill-rule="evenodd" clip-rule="evenodd" d="M24 11.5704C24 5.1801 18.8515 0 12.5014 0C6.14848 0.00143732 1 5.1801 1 11.5719C1 17.3456 5.2056 22.1319 10.7019 23V14.9151H7.78415V11.5719H10.7048V9.02062C10.7048 6.12155 12.4224 4.52037 15.0484 4.52037C16.3075 4.52037 17.6226 4.74603 17.6226 4.74603V7.59193H16.1724C14.7451 7.59193 14.2995 8.4845 14.2995 9.40008V11.5704H17.4875L16.9787 14.9136H14.2981V22.9986C19.7944 22.1304 24 17.3441 24 11.5704Z" fill="white"/>
</g>
</g>
</g>
</g>
</g>
</g>
</g>
</g>
</g>
</g>
<defs>
<clipPath id="clip0_14_6039">
<rect width="1440" height="2763" fill="white" transform="translate(-100 -2686)"/>
</clipPath>
<clipPath id="clip1_14_6039">
<rect width="1440" height="232" fill="white" transform="translate(-100 -153)"/>
</clipPath>
<clipPath id="clip2_14_6039">
<rect width="1280" height="178" fill="white" transform="translate(-20 -126)"/>
</clipPath>
<clipPath id="clip3_14_6039">
<rect width="1279" height="178" fill="white" transform="translate(-19.5 -126)"/>
</clipPath>
<clipPath id="clip4_14_6039">
<rect width="156" height="24" fill="white" transform="translate(0.5)"/>
</clipPath>
<clipPath id="clip5_14_6039">
<rect width="24" height="24" fill="white" transform="translate(0.5)"/>
</clipPath>
</defs>
</svg>
