<svg width="25" height="24" viewBox="0 0 25 24" fill="none" xmlns="http://www.w3.org/2000/svg">
<g clip-path="url(#clip0_68_77)">
<path d="M21.0971 19.5969H17.6893V14.26C17.6893 12.9873 17.6666 11.3491 15.9167 11.3491C14.1419 11.3491 13.8702 12.7357 13.8702 14.1673V19.5964H10.4624V8.6217H13.7339V10.1215H13.7797C14.1071 9.56173 14.5802 9.10122 15.1487 8.78903C15.7172 8.47683 16.3596 8.32466 17.0076 8.34872C20.4616 8.34872 21.0985 10.6206 21.0985 13.5763L21.0971 19.5969ZM6.61723 7.12154C6.22606 7.12161 5.84359 7.00569 5.51845 6.78845C5.19315 6.5712 4.93967 6.26238 4.7899 5.90103C4.64013 5.53971 4.60084 5.14208 4.67717 4.75843C4.75335 4.3748 4.9416 4.02238 5.21811 3.74576C5.49477 3.46914 5.84697 3.28072 6.23073 3.20434C6.61433 3.12796 7.01194 3.16706 7.37331 3.31668C7.73469 3.46629 8.04357 3.71972 8.26097 4.04489C8.47838 4.37008 8.59433 4.75241 8.59449 5.14355C8.59449 5.40326 8.54344 5.66042 8.44408 5.90039C8.34472 6.14034 8.19913 6.35837 8.01555 6.54206C7.8318 6.72572 7.61391 6.87143 7.37396 6.97086C7.13401 7.07029 6.87683 7.1215 6.61723 7.12154ZM8.32104 19.5969H4.90972V8.6217H8.32104V19.5969ZM22.796 0.00156697H3.19721C2.75241 -0.00345302 2.32372 0.168338 2.0055 0.47919C1.68729 0.790042 1.50548 1.21452 1.5 1.65935V21.3395C1.50531 21.7845 1.68697 22.2093 2.00518 22.5204C2.3234 22.8317 2.75225 23.0037 3.19721 22.999H22.796C23.242 23.0047 23.6719 22.833 23.9914 22.5219C24.3109 22.2106 24.4937 21.7854 24.5 21.3395V1.65793C24.4936 1.21222 24.3106 0.787257 23.9911 0.476412C23.6716 0.165568 23.2418 -0.005732 22.796 0.00014645" fill="white"/>
</g>
<defs>
<clipPath id="clip0_68_77">
<rect width="24" height="24" fill="white" transform="translate(0.5)"/>
</clipPath>
</defs>
</svg>
