<svg width="21" height="20" viewBox="0 0 21 20" fill="none" xmlns="http://www.w3.org/2000/svg">
<rect width="21" height="20" fill="#1E1E1E"/>
<g id="body">
<rect width="1440" height="2764" transform="translate(-512 -1682)" fill="#001049"/>
<g id="Content" clip-path="url(#clip0_14_6039)">
<g id="Desktop05">
<g id="Frame 48">
<g id="box 03">
<rect x="-220" y="-97" width="266.871" height="295" rx="8.4551" fill="white"/>
<g id="Frame 47">
<g id="Frame 46">
<g id="Frame">
<path id="Vector" opacity="0.3" d="M18.4072 9.65113C18.4072 5.20938 14.8065 1.60864 10.3647 1.60864C5.92301 1.60864 2.32227 5.20938 2.32227 9.65113C2.32227 14.0929 5.92301 17.6936 10.3647 17.6936C14.8065 17.6936 18.4072 14.0929 18.4072 9.65113Z" fill="black"/>
<path id="Vector_2" d="M9.10549 10.0003L7.7509 8.64572C7.41777 8.3126 6.87765 8.3126 6.54452 8.64572C6.2114 8.97884 6.2114 9.51897 6.54452 9.85209L8.99177 12.2993C9.30583 12.6134 9.81508 12.6134 10.1291 12.2993L14.587 7.84147C14.9201 7.50834 14.9201 6.96823 14.587 6.6351C14.2539 6.30197 13.7138 6.30197 13.3806 6.6351L10.0154 10.0003C9.76417 10.2516 9.35674 10.2516 9.10549 10.0003Z" fill="black"/>
</g>
</g>
</g>
</g>
</g>
</g>
</g>
</g>
<defs>
<clipPath id="clip0_14_6039">
<rect width="1440" height="2763" fill="white" transform="translate(-512 -1682)"/>
</clipPath>
</defs>
</svg>
