<svg width="20" height="20" viewBox="0 0 20 20" fill="none" xmlns="http://www.w3.org/2000/svg">
<rect width="20" height="20" fill="#1E1E1E"/>
<g id="body">
<rect width="1440" height="2764" transform="translate(-807 -1717)" fill="#001049"/>
<g id="Content" clip-path="url(#clip0_14_6039)">
<g id="Desktop05">
<g id="Frame 48">
<g id="box 01">
<rect x="-220.435" y="-146" width="266.871" height="323" rx="8.4551" fill="#0F90CA"/>
<g id="Frame 61">
<g id="Frame 39">
<g id="Frame">
<path id="Vector" opacity="0.3" d="M17.9719 9.95313C17.9719 5.51139 14.3712 1.91064 9.92945 1.91064C5.48771 1.91064 1.88696 5.51139 1.88696 9.95313C1.88696 14.3949 5.48771 17.9956 9.92945 17.9956C14.3712 17.9956 17.9719 14.3949 17.9719 9.95313Z" fill="black"/>
<path id="Vector_2" d="M8.67019 10.3023L7.31559 8.94772C6.98247 8.6146 6.44235 8.6146 6.10922 8.94772C5.77609 9.28084 5.77609 9.82098 6.10922 10.1541L8.55647 12.6013C8.87053 12.9154 9.37978 12.9154 9.69384 12.6013L14.1517 8.14347C14.4848 7.81035 14.4848 7.27023 14.1517 6.9371C13.8186 6.60397 13.2785 6.60397 12.9453 6.9371L9.58012 10.3023C9.32887 10.5536 8.92144 10.5536 8.67019 10.3023Z" fill="black"/>
</g>
</g>
</g>
</g>
</g>
</g>
</g>
</g>
<defs>
<clipPath id="clip0_14_6039">
<rect width="1440" height="2763" fill="white" transform="translate(-807 -1717)"/>
</clipPath>
</defs>
</svg>
